<svg xmlns="http://www.w3.org/2000/svg" xmlns:xlink="http://www.w3.org/1999/xlink" viewBox="0,0,256,256" width="50px" height="50px"><g fill="#000000" fill-rule="nonzero" stroke="none" stroke-width="1" stroke-linecap="butt" stroke-linejoin="miter" stroke-miterlimit="10" stroke-dasharray="" stroke-dashoffset="0" font-family="none" font-weight="none" font-size="none" text-anchor="none" style="mix-blend-mode: normal"><path d="M0,256v-256h256v256z" id="bgRectangle"></path></g><g fill="#ffffff" fill-rule="nonzero" stroke="none" stroke-width="1" stroke-linecap="butt" stroke-linejoin="miter" stroke-miterlimit="10" stroke-dasharray="" stroke-dashoffset="0" font-family="none" font-weight="none" font-size="none" text-anchor="none" style="mix-blend-mode: normal"><g transform="scale(5.12,5.12)"><path d="M15.55273,0.91797c-0.20035,-0.00403 -0.38586,0.02203 -0.55273,0.08203c1,5 0,10.66016 0,10.66016c0,0 -6,-1.69016 -11,-2.66016c0,6.76 6,11.34961 6,11.34961c0,0 -6,0.97109 -9,3.87109c4,2.89 7,2.89008 8,4.83008c-2.82,2.74 -7,4.94922 -7,4.94922l8,1.81055c0,0 -1,3.32945 -3,7.18945c2.4983,0 5.5531,-0.66258 6.55078,-0.89453c2.18285,4.67624 6.45768,7.89453 11.44922,7.89453c4.98161,0 9.24874,-3.20603 11.43555,-7.86719c0.89424,0.26287 3.19831,0.86719 5.56445,0.86719c-1,-2.9 -2,-7.18945 -2,-7.18945c0,0 7.73,-1.54055 8,-2.81055c-3,-1.93 -6,-4.91992 -6,-4.91992c0,0 5,-2.25008 7,-7.08008c-5,0 -9,-0.65039 -9,-0.65039c0,0 3,-6.48961 6,-10.34961c-5,-0.97 -11,1.66016 -11,1.66016c0,0 -1,-5.83016 -1,-10.66016c-2.67,-0.96 -9,6.78906 -9,6.78906c0,0 -6.44196,-6.81067 -9.44727,-6.87109zM25,13c5.99645,0 11,5.73127 11,13v9c0,7.26873 -5.00355,13 -11,13c-5.99645,0 -11,-5.73127 -11,-13v-9c0,-7.26873 5.00355,-13 11,-13zM16.96094,20.98633c-0.49019,0.00134 -0.90717,0.35777 -0.98477,0.84178c-0.0776,0.48402 0.20706,0.95293 0.67227,1.10744c0,0 0.69872,0.24418 1.9668,0.49609c-1.53624,0.71843 -2.61523,2.26942 -2.61523,4.06836c0,2.47344 2.02656,4.5 4.5,4.5c2.47344,0 4.5,-2.02656 4.5,-4.5c0,-1.44069 -0.6988,-2.71571 -1.76172,-3.54102c0.55657,0.02465 1.13759,0.04102 1.76172,0.04102c0.62413,0 1.20515,-0.01636 1.76172,-0.04102c-1.06292,0.82531 -1.76172,2.10032 -1.76172,3.54102c0,2.47344 2.02656,4.5 4.5,4.5c2.47344,0 4.5,-2.02656 4.5,-4.5c0,-1.79894 -1.07899,-3.34993 -2.61523,-4.06836c1.26807,-0.25191 1.9668,-0.49609 1.9668,-0.49609c0.45832,-0.16449 0.73155,-0.63516 0.64712,-1.11472c-0.08443,-0.47956 -0.50198,-0.82862 -0.98892,-0.82669c-0.12376,0.00088 -0.24627,0.02472 -0.36133,0.07031c0,0 -2.44045,0.93555 -7.64844,0.93555c-5.20799,0 -7.64844,-0.93555 -7.64844,-0.93555c-0.12365,-0.05197 -0.25649,-0.07854 -0.39062,-0.07812zM20.5,25c1.39256,0 2.5,1.10744 2.5,2.5c0,1.39256 -1.10744,2.5 -2.5,2.5c-1.39256,0 -2.5,-1.10744 -2.5,-2.5c0,-1.39256 1.10744,-2.5 2.5,-2.5zM29.5,25c1.39256,0 2.5,1.10744 2.5,2.5c0,1.39256 -1.10744,2.5 -2.5,2.5c-1.39256,0 -2.5,-1.10744 -2.5,-2.5c0,-1.39256 1.10744,-2.5 2.5,-2.5zM30,26c-0.55228,0 -1,0.44772 -1,1c0,0.55228 0.44772,1 1,1c0.55228,0 1,-0.44772 1,-1c0,-0.55228 -0.44772,-1 -1,-1zM20,27c-0.55228,0 -1,0.44772 -1,1c0,0.55228 0.44772,1 1,1c0.55228,0 1,-0.44772 1,-1c0,-0.55228 -0.44772,-1 -1,-1zM25.98438,31.98633c-0.55152,0.00862 -0.99193,0.46214 -0.98437,1.01367v2.76953c0,0.1096 -0.0104,0.10583 -0.01953,0.16992c-0.04813,-0.0104 0.02141,-0.0032 -0.06055,-0.04102c-0.5197,-0.23984 -1.24219,-0.86523 -1.24219,-0.86523c-0.26192,-0.24708 -0.63643,-0.33429 -0.98056,-0.22834c-0.34413,0.10595 -0.60473,0.38871 -0.68232,0.74032c-0.07759,0.35161 0.03983,0.71778 0.30741,0.95872c0,0 0.77751,0.75853 1.75781,1.21094c0.49015,0.22621 1.12924,0.47322 1.87109,0.13086c0.37093,-0.17118 0.67849,-0.51694 0.83789,-0.88477c0.15941,-0.36782 0.21094,-0.755 0.21094,-1.19141v-2.76953c0.0037,-0.2703 -0.10218,-0.53059 -0.29351,-0.72155c-0.19133,-0.19097 -0.45182,-0.29634 -0.72212,-0.29212zM25,39c-4.16667,0 -7.31641,1.05078 -7.31641,1.05078c-0.3392,0.11298 -0.59234,0.39837 -0.66405,0.74862c-0.0717,0.35026 0.04893,0.71216 0.31645,0.94934c0.26752,0.23718 0.64126,0.31361 0.98041,0.20047c0,0 0.31907,-0.09228 0.77734,-0.21094c0.0449,0.20467 0.1053,0.42513 0.20898,0.66211c0.23186,0.52996 0.84161,1.02691 1.60156,1.31641c0.03703,0.25768 -0.0063,0.32997 0.14844,0.68359c0.31687,0.72428 1.19131,1.59961 2.44727,1.59961c1.25595,0 2.13039,-0.87533 2.44727,-1.59961c0.14319,-0.32728 0.09689,-0.38304 0.13672,-0.63281c0.22724,-0.05489 0.26815,0.0053 0.53711,-0.14844c0.65163,-0.37236 1.29965,-1.23745 1.36523,-2.42773c2.22833,0.27673 3.69727,0.75781 3.69727,0.75781c0.33915,0.11314 0.71289,0.03671 0.98041,-0.20047c0.26752,-0.23718 0.38815,-0.59909 0.31645,-0.94934c-0.0717,-0.35026 -0.32485,-0.63564 -0.66405,-0.74862c0,0 -3.14974,-1.05078 -7.31641,-1.05078zM25,41c0.34438,0 0.67089,0.01535 0.99805,0.0293c-0.00619,0.67431 -0.18425,0.74591 -0.36914,0.85156c-0.18816,0.10752 -0.37891,0.11914 -0.37891,0.11914c-0.55226,0.00006 -0.99994,0.44774 -1,1c0,0 -0.01414,0.32389 -0.13477,0.59961c-0.12063,0.27572 -0.12119,0.40039 -0.61523,0.40039c-0.49405,0 -0.49461,-0.12467 -0.61523,-0.40039c-0.12063,-0.27572 -0.13477,-0.59961 -0.13477,-0.59961c-0.00006,-0.55226 -0.44774,-0.99994 -1,-1c-0.49405,0 -0.49461,-0.12467 -0.61523,-0.40039c-0.04096,-0.09362 -0.05615,-0.18328 -0.07617,-0.27344c1.08975,-0.17809 2.43422,-0.32617 3.94141,-0.32617z"></path></g></g></svg>