<?xml version="1.0" standalone="no"?>
<!DOCTYPE svg PUBLIC "-//W3C//DTD SVG 20010904//EN"
 "http://www.w3.org/TR/2001/REC-SVG-20010904/DTD/svg10.dtd">
<svg version="1.0" xmlns="http://www.w3.org/2000/svg"
 width="564.000000pt" height="423.000000pt" viewBox="0 0 564.000000 423.000000"
 preserveAspectRatio="xMidYMid meet">

<g transform="translate(0.000000,423.000000) scale(0.100000,-0.100000)"
fill="#000000" stroke="none">
<path d="M0 2115 l0 -2115 2820 0 2820 0 0 2115 0 2115 -2820 0 -2820 0 0
-2115z m2800 1140 c100 -27 108 -27 180 -15 141 25 167 15 273 -95 46 -48 67
-89 53 -102 -4 -4 -27 3 -51 15 -43 21 -75 28 -75 17 0 -2 10 -24 21 -49 40
-81 0 -105 -77 -46 -41 31 -53 47 -68 96 l-18 58 -44 -80 c-24 -43 -44 -87
-44 -96 0 -29 -21 -21 -123 42 -52 33 -97 60 -99 60 -3 0 -3 -13 0 -29 4 -27
2 -28 -49 -35 -30 -4 -75 -19 -101 -33 -39 -21 -50 -24 -63 -13 -23 19 -18 41
20 84 19 21 35 44 35 51 0 24 -12 45 -25 45 -22 0 -198 -90 -225 -115 -40 -37
-76 -37 -90 0 -10 27 -34 32 -55 13 -95 -91 -129 -127 -152 -164 -15 -24 -31
-44 -34 -44 -16 0 -18 53 -4 86 34 82 187 249 259 283 34 16 49 18 86 11 43
-9 46 -8 72 22 51 59 68 65 186 63 81 -2 133 -9 212 -30z m611 -107 c136 -71
189 -153 189 -287 -1 -66 -33 -171 -55 -178 -6 -2 -17 23 -25 54 -14 54 -18
59 -63 80 -62 30 -73 57 -58 139 16 87 16 85 -39 155 -74 95 -69 99 51 37z
m-1446 -214 c-8 -19 -37 -60 -64 -92 -80 -92 -159 -238 -177 -329 -16 -78 -44
-161 -70 -211 -14 -27 -14 -27 -14 16 0 137 81 378 179 529 38 60 134 138 153
126 4 -2 1 -20 -7 -39z m815 -54 c13 -27 21 -52 18 -55 -8 -8 -165 -11 -173
-3 -18 18 80 106 121 108 6 0 21 -22 34 -50z m917 -220 c4 -88 12 -137 36
-210 27 -87 29 -103 24 -190 -3 -57 -14 -119 -26 -154 -27 -77 -27 -89 9 -141
48 -70 36 -173 -27 -232 -31 -30 -40 -33 -99 -33 -35 0 -64 2 -64 4 0 2 11 29
25 60 25 56 33 106 17 106 -4 0 -30 -23 -57 -50 -60 -61 -114 -96 -120 -77
-17 55 -13 72 25 113 53 58 85 124 106 223 19 87 32 103 67 82 19 -13 20 -11
13 116 -9 175 11 442 41 533 11 32 24 -37 30 -150z m-1057 115 c7 -9 10 -18 7
-21 -10 -11 -37 5 -37 21 0 19 14 19 30 0z m-442 -51 c5 -9 7 -36 4 -60 -4
-39 -2 -44 15 -44 11 0 28 9 39 21 38 42 67 49 198 49 131 0 176 -10 176 -40
0 -37 -24 -43 -163 -38 -172 7 -209 -4 -290 -80 l-59 -57 3 35 c3 30 1 35 -18
38 -14 2 -23 -2 -23 -10 0 -7 -20 -25 -45 -40 l-45 -28 0 -58 c0 -58 -1 -61
-50 -108 l-50 -48 30 -13 c25 -10 30 -18 30 -48 0 -76 -22 -232 -41 -285 -10
-30 -19 -58 -19 -62 0 -4 18 -17 41 -28 29 -15 46 -33 59 -63 10 -22 16 -45
14 -49 -3 -4 -59 -8 -124 -8 l-120 0 -21 42 c-54 105 -54 107 1 221 28 56 61
115 75 131 43 50 24 61 -45 26 -76 -39 -116 -19 -98 49 11 40 54 128 72 147 6
6 18 20 27 30 8 11 34 36 56 56 57 50 64 68 57 130 l-6 54 64 42 c77 49 205
112 230 112 9 0 21 -7 26 -16z m1027 -53 c14 -46 -33 -101 -87 -101 -41 0 -88
34 -88 64 0 15 64 43 115 49 17 2 35 5 42 6 6 0 14 -7 18 -18z m688 -38 c26
-52 47 -159 47 -243 0 -49 -4 -80 -9 -75 -8 9 -39 110 -79 257 -13 47 -14 59
-3 72 19 23 28 20 44 -11z m-327 -69 c17 -78 14 -164 -8 -232 -18 -57 -29 -22
-35 105 -6 124 2 217 17 208 5 -3 16 -39 26 -81z m-561 66 c14 -22 -7 -72 -38
-91 -49 -30 -127 -4 -127 42 0 16 22 27 100 53 27 8 59 6 65 -4z m-379 -96
c32 -25 35 -26 59 -10 33 22 46 20 79 -11 27 -25 28 -28 11 -37 -59 -36 -80
-54 -80 -71 0 -17 7 -19 56 -16 53 2 57 1 63 -23 3 -14 4 -37 0 -51 -7 -28 -2
-30 27 -15 16 9 24 6 44 -18 14 -17 36 -33 49 -36 27 -7 41 -35 31 -65 -7 -25
-68 -61 -101 -61 -50 0 -134 47 -134 76 0 7 14 26 30 42 27 28 29 32 14 46
-24 25 -61 30 -88 13 l-23 -16 -7 55 c-7 63 -41 137 -87 189 l-31 35 27 0 c14
0 42 -12 61 -26z m744 -12 c0 -29 57 -150 90 -192 11 -14 23 -40 26 -59 l7
-33 -41 7 c-39 6 -42 5 -48 -20 -4 -15 -2 -44 5 -65 6 -20 11 -53 11 -71 0
-40 -45 -143 -59 -135 -5 4 -13 31 -16 61 -9 72 -31 97 -121 140 -81 39 -96
65 -49 87 14 6 28 23 32 37 10 42 36 76 58 76 16 0 19 6 17 31 -3 30 -1 31 38
37 23 3 44 8 47 10 2 3 -8 24 -23 46 -22 34 -24 44 -14 56 20 24 40 18 40 -13z
m458 -159 c30 -77 43 -133 49 -202 5 -70 3 -82 -24 -141 -32 -70 -57 -100 -65
-78 -3 7 -1 47 4 88 5 41 10 139 11 217 1 79 5 143 8 143 4 0 11 -12 17 -27z
m-1465 -83 c-3 -70 -82 -102 -150 -60 -29 17 -53 63 -41 76 10 10 95 22 143
21 l50 -2 -2 -35z m215 34 c57 -16 -4 -114 -71 -114 -53 0 -124 67 -98 93 19
19 125 32 169 21z m1401 -154 l-1 -45 -13 41 c-7 23 -18 51 -24 62 -15 29 0
37 21 10 11 -15 17 -39 17 -68z m-1277 -43 l3 -62 33 3 c45 3 95 -26 88 -53
-3 -11 -10 -51 -16 -90 -5 -38 -15 -91 -21 -117 -10 -46 -12 -47 -55 -54 -54
-8 -102 10 -109 40 -3 11 -6 50 -7 86 -3 71 -3 70 -93 106 -37 14 -38 16 -20
26 11 6 49 40 84 76 61 62 63 66 57 104 l-7 40 30 -21 c27 -20 30 -28 33 -84z
m538 -72 c0 -5 -11 8 -25 30 -13 22 -24 45 -25 50 0 6 11 -8 25 -30 13 -22 24
-44 25 -50z m-63 -77 c-2 -13 -4 -3 -4 22 0 25 2 35 4 23 2 -13 2 -33 0 -45z
m83 27 c0 -5 -5 -3 -10 5 -5 8 -10 20 -10 25 0 6 5 3 10 -5 5 -8 10 -19 10
-25z m-283 -82 c-2 -21 -4 -6 -4 32 0 39 2 55 4 38 2 -18 2 -50 0 -70z m-768
35 c1 -10 -3 -18 -9 -18 -5 0 -10 17 -9 38 0 30 2 33 9 17 5 -11 9 -28 9 -37z
m701 -80 c11 -7 20 -17 20 -22 0 -5 -13 3 -30 19 -16 16 -30 36 -29 44 0 10 4
8 9 -6 5 -12 18 -28 30 -35z m372 10 c-6 -6 -7 0 -4 19 5 21 7 23 10 9 2 -10
0 -22 -6 -28z m608 -119 c-11 -27 -20 -52 -20 -54 0 -3 -12 -5 -26 -5 l-26 0
24 29 c14 15 30 42 37 60 8 17 17 28 22 25 5 -2 0 -27 -11 -55z m-719 -314
c-6 -51 -4 -213 3 -231 6 -15 11 -13 37 14 35 35 54 39 84 16 18 -14 20 -13
25 8 5 19 13 23 44 23 53 0 75 -10 87 -42 l12 -28 7 25 c15 51 41 90 60 90 16
0 20 -7 20 -38 0 -20 -4 -51 -9 -68 -9 -30 -7 -32 28 -46 l36 -14 0 95 c0 88
2 96 19 96 15 0 26 -15 42 -58 13 -33 25 -72 28 -89 6 -41 10 -43 45 -24 17 9
45 23 62 32 21 11 34 13 41 6 18 -18 2 -38 -69 -91 -106 -80 -130 -102 -173
-158 -40 -52 -142 -118 -167 -109 -22 9 -15 33 18 60 29 25 30 26 12 45 -10
10 -27 21 -38 23 -11 2 -21 12 -24 23 -2 11 -8 31 -13 45 l-9 24 -12 -24 c-17
-34 -41 -32 -47 4 l-5 28 -19 -21 c-20 -22 -70 -29 -81 -11 -9 15 -38 12 -32
-3 3 -8 8 -39 12 -70 7 -55 7 -57 -16 -57 -26 0 -46 33 -60 99 -18 80 -26 106
-31 91 -3 -8 -9 -28 -14 -45 -6 -20 -16 -30 -28 -30 -21 0 -54 48 -55 81 -1
11 -7 29 -15 39 -13 18 -15 16 -21 -30 -3 -28 -10 -59 -15 -70 -4 -11 -12 -42
-16 -70 -7 -40 -13 -50 -29 -50 -18 0 -21 9 -27 84 -4 52 -3 92 3 103 6 11 12
45 14 76 4 74 32 162 50 162 8 0 22 13 31 30 32 53 70 50 60 -5 -4 -18 -4 -52
0 -75 8 -51 20 -42 53 45 34 86 60 127 80 123 11 -3 15 -12 12 -33z m-1176
-29 c35 -16 59 -34 66 -50 10 -21 15 -24 32 -14 35 19 53 -16 52 -101 -1 -39
2 -74 7 -77 4 -3 8 1 8 9 0 7 13 26 30 42 22 21 39 28 72 29 35 1 43 5 46 21
7 50 13 63 28 69 25 9 44 -12 44 -50 0 -44 11 -48 50 -19 19 14 42 25 52 25
31 0 20 -33 -31 -90 -39 -43 -47 -58 -40 -72 5 -10 13 -18 18 -18 12 0 27 -38
42 -104 11 -49 10 -59 -2 -67 -24 -15 -39 -10 -50 19 -6 15 -20 46 -31 69
l-21 43 -18 -40 c-23 -51 -59 -57 -59 -10 0 37 -18 39 -57 6 -30 -25 -45 -24
-56 7 -9 24 -26 21 -36 -5 -6 -16 -1 -36 15 -69 44 -86 22 -130 -30 -64 -51
64 -121 131 -156 148 -18 10 -34 17 -35 17 -9 0 -12 -53 -5 -90 8 -45 -8 -110
-27 -110 -28 1 -59 87 -70 195 -3 28 -14 88 -25 135 -41 181 -41 173 -17 193
12 9 29 17 39 17 10 0 31 7 46 15 39 20 54 19 119 -9z m804 -244 c-2 -43 0
-86 4 -97 4 -11 2 -27 -3 -35 -8 -13 -17 -12 -72 7 -55 19 -65 20 -79 7 -21
-19 -36 -18 -49 4 -10 16 -10 16 -20 0 -25 -41 -61 1 -45 51 3 12 8 33 11 48
5 29 40 83 54 83 5 0 16 -10 24 -22 9 -12 16 -19 16 -15 0 4 9 3 19 -3 13 -7
22 -7 26 0 11 17 45 11 46 -7 0 -11 7 -3 16 17 16 37 32 52 45 43 5 -2 8 -39
7 -81z"/>
<path d="M3153 1442 c-8 -13 -8 -40 -2 -93 6 -41 12 -121 14 -179 3 -58 9
-127 14 -153 5 -29 5 -45 0 -40 -5 5 -12 25 -14 45 -3 20 -9 47 -14 60 -5 13
-8 49 -6 79 2 52 -12 109 -27 109 -8 0 -10 -6 -13 -50 -1 -14 -7 -34 -12 -45
-6 -11 -14 -42 -18 -68 l-8 -49 -13 29 c-7 15 -20 54 -28 85 -9 31 -21 60 -26
63 -6 3 -10 18 -10 33 0 23 -2 25 -15 11 -9 -8 -17 -42 -20 -79 -7 -82 -11
-110 -20 -135 -7 -20 -7 -20 8 0 9 12 18 56 22 110 5 50 10 83 13 75 2 -8 10
-22 17 -30 7 -8 18 -37 24 -65 15 -63 40 -117 50 -110 5 2 12 26 16 52 4 26
14 61 22 76 8 16 12 35 9 43 -3 7 -1 16 4 19 6 4 10 0 11 -7 0 -7 2 -44 3 -83
4 -104 37 -215 64 -215 10 0 12 6 7 23 -4 12 -8 34 -10 50 -1 15 -4 28 -5 30
-5 4 -11 52 -9 72 3 56 1 98 -11 183 -10 70 -10 99 -1 118 21 46 9 75 -16 36z"/>
<path d="M3013 1398 c-6 -7 -13 -21 -16 -31 -4 -11 -16 -21 -27 -24 -24 -6
-39 -53 -47 -143 -3 -36 -10 -71 -16 -78 -12 -15 -10 -163 2 -175 5 -5 14 8
21 28 10 32 10 42 -6 71 -16 29 -17 38 -5 70 7 20 14 55 16 78 6 86 17 126 35
126 10 0 21 8 25 18 6 16 8 15 15 -3 4 -11 13 -59 20 -108 13 -91 26 -117 35
-70 14 72 45 171 65 205 15 26 12 35 -4 13 -7 -11 -19 -37 -26 -58 -7 -22 -18
-51 -26 -65 -8 -15 -14 -40 -14 -56 0 -40 -8 -29 -14 19 -2 22 -9 61 -15 87
-6 26 -8 60 -5 77 7 33 3 39 -13 19z m-83 -389 c0 -5 -4 -9 -10 -9 -5 0 -10 7
-10 16 0 8 5 12 10 9 6 -3 10 -10 10 -16z"/>
<path d="M3639 1305 c-4 -50 3 -128 12 -152 13 -34 0 -79 -25 -91 -12 -5 -28
-22 -36 -38 -8 -16 -30 -46 -49 -66 -19 -21 -30 -38 -24 -38 6 0 23 14 38 31
14 17 29 28 33 24 12 -12 -58 -67 -77 -60 -11 3 -25 -3 -36 -15 -22 -25 -12
-39 12 -18 10 8 30 18 45 22 15 3 40 23 55 43 24 32 71 81 159 163 12 11 25
20 30 20 15 1 79 58 72 65 -3 3 -30 -7 -60 -24 -67 -38 -76 -38 -83 -3 -11 50
-40 135 -52 151 -11 14 -13 12 -14 -14z m47 -105 c7 -50 16 -90 21 -90 2 0 11
7 19 15 9 8 21 15 27 15 7 -1 -10 -20 -38 -43 -27 -23 -67 -59 -87 -81 -32
-33 -38 -36 -38 -19 0 18 14 33 56 61 12 8 35 104 23 96 -9 -5 -24 87 -20 126
2 19 32 -46 37 -80z"/>
<path d="M3526 1283 c-13 -26 -23 -64 -25 -100 -1 -6 -10 -15 -21 -18 -25 -8
-26 -22 -1 -30 16 -5 18 -13 14 -44 -3 -21 0 -48 7 -61 8 -15 8 -20 1 -16 -7
5 -11 -4 -11 -23 0 -17 4 -31 9 -31 11 0 18 27 27 106 l6 62 31 -9 c23 -6 35
-5 45 5 13 13 5 19 -60 39 -14 5 -15 12 -6 46 8 32 7 45 -3 58 -8 10 -9 14 -2
10 15 -10 28 12 15 25 -7 7 -15 1 -26 -19z m10 -55 c-20 -71 -20 -78 5 -79 13
0 33 -5 44 -10 15 -7 9 -8 -22 -4 -36 4 -43 2 -44 -12 -2 -40 -6 -63 -12 -70
-4 -4 -5 13 -2 37 4 29 2 46 -7 52 -10 6 -10 10 -1 16 10 6 20 40 22 80 1 6 6
12 12 12 7 0 9 -9 5 -22z"/>
<path d="M3352 1225 c-1 -25 -3 -49 -3 -53 -1 -4 0 -11 1 -17 1 -5 3 -30 4
-55 1 -47 18 -67 24 -29 3 15 0 19 -10 14 -7 -5 -9 -4 -5 0 15 17 37 13 48 -7
9 -17 13 -18 20 -7 5 9 7 1 3 -21 -5 -34 9 -71 21 -58 9 9 -14 119 -28 137 -9
10 -5 19 18 37 26 21 28 26 17 44 -6 11 -12 26 -12 34 0 15 -47 19 -56 5 -8
-14 -24 -10 -24 6 0 8 -4 15 -8 15 -5 0 -10 -20 -10 -45z m69 13 c0 -9 2 -8 6
1 4 10 10 5 18 -15 10 -24 10 -32 -3 -46 -23 -27 -32 -22 -22 12 7 26 6 30
-11 30 -19 0 -25 11 -12 23 10 11 23 8 24 -5z m-31 -23 c0 -2 -4 -15 -10 -29
-7 -20 -6 -24 5 -19 9 3 15 -1 15 -10 0 -8 7 -20 15 -27 8 -7 15 -21 15 -32 0
-17 -3 -18 -15 -8 -8 7 -15 21 -15 31 0 21 -19 37 -21 17 -1 -7 -1 -16 0 -20
0 -5 -2 -8 -6 -8 -5 0 -9 27 -11 60 -2 49 0 58 13 54 8 -4 15 -8 15 -9z m16
-32 c-10 -10 -19 5 -10 18 6 11 8 11 12 0 2 -7 1 -15 -2 -18z"/>
<path d="M3243 1218 c-32 -36 -41 -60 -35 -101 8 -65 77 -81 116 -26 8 12 12
27 9 33 -4 6 -8 30 -9 54 -2 63 -42 83 -81 40z m55 3 c8 -4 15 -33 17 -68 4
-55 2 -61 -20 -73 -37 -20 -71 -1 -78 42 -5 34 3 56 31 89 18 21 30 23 50 10z"/>
<path d="M3249 1195 c-1 -3 -2 -8 -3 -12 -1 -5 -6 -19 -10 -31 -6 -18 -3 -29
13 -43 12 -11 26 -17 31 -14 13 8 13 62 0 70 -5 3 -7 12 -3 20 3 9 -1 15 -11
15 -9 0 -17 -2 -17 -5z m26 -58 c1 -15 -2 -27 -6 -27 -14 0 -29 28 -23 44 10
25 29 13 29 -17z"/>
<path d="M3451 1117 c0 -7 7 -28 14 -47 l13 -35 1 41 c1 29 -4 44 -14 48 -8 3
-15 0 -14 -7z"/>
<path d="M3545 1085 c-3 -11 -9 -44 -13 -73 -9 -51 -9 -52 9 -36 11 9 19 25
19 35 0 9 16 31 35 48 19 17 35 34 35 38 0 4 -18 8 -40 8 -33 1 -41 -3 -45
-20z"/>
<path d="M1914 1415 c-10 -8 -30 -15 -44 -15 -46 -1 -61 -22 -54 -71 4 -24 10
-48 14 -54 5 -5 9 -28 11 -50 1 -22 6 -45 11 -51 7 -10 18 -86 20 -139 0 -11
5 -33 11 -50 7 -16 12 -34 13 -40 3 -23 17 -55 24 -55 12 0 20 50 15 85 -3 17
-6 54 -8 82 -2 49 -1 52 18 47 11 -3 25 -12 31 -20 6 -8 18 -14 27 -14 9 0 21
-9 27 -20 6 -11 16 -20 22 -20 14 0 86 -77 93 -100 3 -10 12 -24 20 -30 36
-30 8 68 -31 105 -11 11 -30 37 -43 58 -12 20 -28 37 -35 37 -7 0 -23 12 -37
26 -24 25 -24 26 -5 40 11 8 23 14 26 14 3 0 14 24 24 54 21 62 15 133 -12
143 -10 4 -19 9 -22 12 -7 8 -79 41 -88 41 -5 0 -17 -7 -28 -15z m73 -17 c15
-7 30 -15 33 -19 3 -3 13 -8 22 -12 21 -8 37 -95 18 -107 -6 -4 -11 -11 -11
-16 3 -22 -19 -64 -33 -64 -8 0 -20 -9 -26 -20 -9 -17 -5 -24 31 -50 23 -16
56 -49 73 -72 17 -24 37 -48 46 -55 8 -6 12 -14 9 -18 -4 -3 -25 15 -47 40
-22 25 -42 45 -46 45 -3 0 -15 9 -26 20 -12 12 -25 18 -29 15 -5 -2 -14 2 -21
10 -7 8 -19 15 -26 15 -8 0 -14 4 -14 10 0 5 -7 7 -16 3 -12 -5 -15 -15 -11
-45 3 -21 1 -36 -4 -32 -5 3 -4 -7 2 -23 14 -34 20 -93 10 -93 -10 0 -42 90
-36 101 3 4 -4 54 -15 111 -12 56 -19 110 -17 120 3 10 1 16 -4 13 -4 -3 -11
6 -14 20 -3 14 -7 36 -10 49 -5 24 9 36 45 41 8 1 24 6 35 13 26 15 48 15 82
0z m183 -469 c0 -6 -4 -7 -10 -4 -5 3 -10 11 -10 16 0 6 5 7 10 4 6 -3 10 -11
10 -16z"/>
<path d="M1897 1343 c-23 -12 -27 -20 -23 -43 2 -16 7 -33 11 -39 3 -6 9 -29
13 -52 8 -48 25 -56 73 -32 65 32 70 136 7 167 -37 19 -44 19 -81 -1z m107
-45 c17 -49 -20 -118 -64 -118 -15 0 -23 12 -36 58 -8 31 -18 65 -20 75 -4 12
0 17 15 17 11 0 23 4 26 10 10 17 69 -14 79 -42z"/>
<path d="M1927 1318 c-20 -11 -22 -39 -5 -85 16 -44 42 -43 66 3 22 42 -23
104 -61 82z"/>
<path d="M2117 1333 c-13 -13 -7 -61 8 -67 20 -7 29 16 21 49 -6 25 -17 31
-29 18z m23 -39 c0 -8 -4 -14 -9 -14 -6 0 -9 9 -8 19 1 22 17 18 17 -5z"/>
<path d="M2350 1303 c0 -16 -7 -50 -15 -77 -18 -60 -18 -66 -2 -66 11 0 12
-12 6 -59 -5 -33 -10 -63 -11 -68 -2 -4 2 -10 7 -13 6 -3 16 14 24 38 7 24 18
41 25 39 6 -2 27 -36 47 -75 29 -59 38 -70 48 -58 8 9 9 21 2 37 -5 13 -15 43
-22 67 -7 23 -17 42 -22 42 -26 0 -51 70 -24 70 17 1 102 100 85 100 -20 0
-59 -30 -53 -40 3 -5 0 -12 -6 -16 -8 -4 -9 -3 -5 4 10 17 -6 15 -32 -4 l-22
-15 0 60 c0 48 -3 61 -15 61 -10 0 -15 -10 -15 -27z m33 -103 c7 0 18 5 25 12
6 6 15 8 19 4 4 -4 -6 -17 -21 -30 -29 -22 -29 -23 -11 -49 10 -15 24 -31 32
-36 14 -8 47 -110 39 -119 -2 -2 -10 13 -17 32 -7 20 -17 36 -21 36 -4 0 -8 8
-8 18 0 9 -7 26 -16 37 -12 17 -17 18 -35 7 -20 -13 -20 -12 -13 34 5 37 4 45
-6 39 -10 -6 -11 -1 -6 21 4 16 10 49 14 74 l7 45 3 -62 c2 -42 7 -63 15 -63z"/>
<path d="M2081 1228 c-6 -18 -23 -44 -36 -58 l-25 -26 39 -26 39 -25 0 83 c0
46 -1 84 -3 84 -2 0 -8 -14 -14 -32z"/>
<path d="M2116 1158 c3 -46 7 -91 8 -101 0 -9 5 -18 11 -20 11 -2 21 45 19 91
-1 17 -2 50 -3 72 -1 33 -4 40 -22 40 -19 0 -20 -4 -13 -82z m28 -34 c-4 -49
-6 -51 -13 -7 -4 23 -5 59 -2 80 l5 38 6 -41 c3 -22 5 -53 4 -70z"/>
<path d="M2227 1217 c-14 -12 -28 -33 -32 -47 -4 -14 -11 -30 -16 -36 -9 -11
-1 -54 11 -54 4 0 12 -12 19 -27 12 -27 13 -27 27 -8 8 11 28 25 44 30 44 15
36 30 -15 30 -43 0 -56 7 -35 20 5 3 7 12 3 20 -7 19 36 65 60 65 28 0 15 22
-15 26 -16 1 -36 -6 -51 -19z m32 -4 c-7 -10 -20 -26 -27 -35 -8 -10 -16 -34
-18 -53 l-3 -36 36 7 c26 5 34 4 29 -5 -4 -6 -12 -11 -18 -11 -6 0 -16 -8 -23
-17 -11 -15 -13 -15 -19 5 -4 12 -11 22 -16 22 -21 0 6 99 34 122 27 23 42 23
25 1z"/>
<path d="M2278 1180 c-36 -28 -35 -47 2 -55 35 -8 55 1 41 18 -5 7 -11 23 -13
35 l-3 24 -27 -22z"/>
<path d="M2779 1198 c-6 -24 -18 -51 -27 -61 -13 -14 -13 -17 -1 -14 8 2 11 2
7 0 -5 -3 -8 -14 -8 -25 0 -35 25 -13 26 24 3 69 19 69 19 0 0 -37 -1 -59 -3
-50 -3 14 -7 15 -22 6 -27 -17 -33 -6 -33 62 0 60 -10 78 -22 40 -7 -24 -23
-26 -31 -5 -10 25 -24 17 -24 -15 0 -46 -17 -36 -24 15 -4 25 -11 45 -17 45
-12 0 -11 -7 2 -32 7 -13 7 -18 1 -14 -6 4 -15 -2 -21 -11 -10 -17 -10 -17
-11 0 0 9 5 17 10 17 6 0 10 5 10 11 0 8 -5 8 -15 -1 -8 -7 -15 -23 -15 -37 0
-13 -5 -34 -11 -46 -9 -15 -9 -22 -1 -25 6 -2 8 -10 5 -18 -3 -8 -2 -14 1 -14
4 0 12 14 17 30 14 38 21 38 38 -2 10 -24 15 -28 18 -16 2 10 10 15 19 11 10
-3 14 2 14 18 l0 24 18 -22 c9 -12 31 -25 47 -28 17 -4 37 -9 45 -11 13 -3 15
12 15 91 1 52 -3 95 -7 95 -4 0 -12 -19 -19 -42z m-66 -56 c3 7 6 -3 6 -22 l1
-35 -25 30 c-29 36 -33 55 -6 31 15 -13 20 -14 24 -4z m-74 -37 c0 -18 -1 -17
-10 4 -6 15 -15 21 -24 17 -8 -3 -15 -1 -15 4 0 13 34 18 42 5 4 -5 7 -19 7
-30z"/>
</g>
</svg>
